<svg width="90" height="98" viewBox="0 0 90 98" fill="none" xmlns="http://www.w3.org/2000/svg">
<path d="M0 20C0 8.95431 8.95431 0 20 0H90V97.0667H20C8.9543 97.0667 0 88.1124 0 77.0667V20Z" fill="#FCDE58"/>
<path d="M29.6077 58.7372C33.7856 58.7372 37.1724 55.5454 37.1724 51.6083C37.1724 47.6711 33.7856 44.4794 29.6077 44.4794C25.4299 44.4794 22.0431 47.6711 22.0431 51.6083C22.0431 55.5454 25.4299 58.7372 29.6077 58.7372Z" fill="#F7D02F"/>
<path d="M58.8577 59.0777C63.0356 59.0777 66.4224 55.886 66.4224 51.9488C66.4224 48.0117 63.0356 44.8199 58.8577 44.8199C54.6799 44.8199 51.2931 48.0117 51.2931 51.9488C51.2931 55.886 54.6799 59.0777 58.8577 59.0777Z" fill="#F7D02F"/>
<path d="M49.8693 50.5228H38.456C38.456 50.5228 37.0454 59.2329 44.3268 59.4265C51.9199 59.628 49.8665 50.5228 49.8665 50.5228H49.8693Z" fill="#6A5600"/>
<path d="M46.9005 50.5228H42.2094V51.8415H46.9005V50.5228Z" fill="white"/>
<path d="M29.0767 42C31.6334 42.0669 37.2666 42.9843 40.0529 46.0796C40.2018 46.2449 40.1087 46.5024 39.8913 46.5495C37.3378 47.1025 33.0133 48.2533 30.4081 50.7607" stroke="#6A5600" stroke-width="2"/>
<path d="M58.9233 42C56.3666 42.0669 50.7334 42.9843 47.9471 46.0796C47.7982 46.2449 47.8913 46.5024 48.1087 46.5495C50.6622 47.1025 54.9867 48.2533 57.5919 50.7607" stroke="#6A5600" stroke-width="2"/>
</svg>
