<svg width="153" height="46" viewBox="0 0 153 46" fill="none" xmlns="http://www.w3.org/2000/svg">
<path d="M9.8105 4.53702C9.8105 1.76215 7.63039 0.00117617 4.90525 0.00117617C2.18011 0.00117617 0 1.76215 0 4.53702V41.4642C0 44.239 2.18011 46 4.90525 46C7.63039 46 9.8105 44.239 9.8105 41.4642V31.7521L15.9693 25.7221L29.1045 43.9188C30.7396 46.2135 33.3557 46.5336 35.5358 45.0395C37.7704 43.4919 38.043 40.7704 36.5714 38.7426L22.5097 19.3185L34.3368 7.7388C36.3534 5.76437 36.2989 3.20295 34.3913 1.33525C32.4837 -0.532452 29.6495 -0.372366 27.8509 1.38861L9.8105 19.0517V4.53702Z" fill="#FCBA58"/>
<path d="M59.9756 9.12623C62.3193 9.12623 63.6818 7.04508 63.6818 4.91056C63.6818 2.72268 62.3193 0.694895 59.9756 0.694895H44.8239C42.4802 0.694895 41.1177 2.77605 41.1177 4.91056C41.1177 7.09844 42.4802 9.12623 44.8239 9.12623H47.4945V36.8749H44.8239C42.4802 36.8749 41.1177 38.9561 41.1177 41.0906C41.1177 43.2785 42.4802 45.3063 44.8239 45.3063H59.9756C62.3193 45.3063 63.6818 43.2251 63.6818 41.0906C63.6818 38.9027 62.3193 36.8749 59.9756 36.8749H57.305V9.12623H59.9756Z" fill="#FCBA58"/>
<path d="M86.6641 45.3063C100.78 45.3063 108.193 35.9144 108.193 22.9472C108.193 9.98004 100.78 0.694895 86.7186 0.694895H75.6546C72.3844 0.694895 70.2043 2.82941 70.2043 6.03118V39.97C70.2043 43.1718 72.3844 45.3063 75.6546 45.3063H86.6641ZM85.9011 9.12623C95.0576 9.12623 98.4912 14.5159 98.4912 22.9472C98.4912 31.3786 95.0031 36.8749 85.9011 36.8749H79.9058V9.12623H85.9011Z" fill="#FCBA58"/>
<path d="M143.295 42.8516C144.33 45.3596 147.11 46.587 149.835 45.6265C152.342 44.7193 153.596 42.1579 152.724 40.0234L137.136 3.4164C136.209 1.22852 134.356 0.00117617 131.795 0.00117617C129.451 0.00117617 127.489 1.22852 126.562 3.4164L110.865 40.0234C109.939 42.1045 111.247 44.7727 113.809 45.6265C116.588 46.587 119.368 45.413 120.403 42.8516L122.802 36.8216H140.842L143.295 42.8516ZM131.795 14.6226L137.408 28.497H126.181L131.795 14.6226Z" fill="#FCBA58"/>
</svg>
