<svg xmlns="http://www.w3.org/2000/svg" width="257" height="233" viewBox="0 0 257 233" fill="none">
<g clip-path="url(#clip0_250_97)">
<path d="M248.653 119.425C248.593 102.083 238.364 87.1762 223.695 80.4331C225.593 75.5395 226.638 70.215 226.616 64.6369C226.534 40.9183 207.441 21.7387 183.969 21.7982C179.156 21.8129 174.538 22.6419 170.228 24.1437C163.185 10.1413 148.784 0.558077 132.187 0.600839C115.856 0.644817 101.715 9.9984 94.6469 23.6751C90.9469 22.6238 87.0495 22.0538 83.0187 22.0664C59.5467 22.126 40.5869 41.4051 40.6695 65.1237C40.6869 70.4778 41.6831 75.5953 43.4699 80.3201C28.1489 86.8392 17.4178 102.176 17.4821 120.028C17.5402 137.004 27.3433 151.652 41.5174 158.586C41.1826 160.782 41.0084 163.032 41.0169 165.324C41.0995 189.043 60.1916 208.222 83.6637 208.163C88.631 208.15 93.3951 207.269 97.824 205.671C105.521 216.944 118.398 224.318 132.968 224.283C147.858 224.245 160.924 216.465 168.476 204.728C173.459 206.782 178.91 207.914 184.621 207.9C208.093 207.84 227.052 188.561 226.97 164.843C226.96 162.297 226.721 159.807 226.293 157.383C239.655 150.12 248.717 135.837 248.661 119.425L248.653 119.425Z" fill="#FCDE58"/>
</g>
<defs>
<clipPath id="clip0_250_97">
<rect width="257" height="233" fill="white"/>
</clipPath>
</defs>
</svg>