<svg width="257" height="233" viewBox="0 0 257 233" fill="none" xmlns="http://www.w3.org/2000/svg">
<g clip-path="url(#clip0_250_97)">
<path d="M248.653 119.425C248.593 102.083 238.364 87.1762 223.695 80.4331C225.593 75.5395 226.638 70.215 226.616 64.6369C226.534 40.9183 207.441 21.7387 183.969 21.7983C179.156 21.8129 174.538 22.6419 170.228 24.1437C163.185 10.1413 148.784 0.558077 132.187 0.600839C115.856 0.644815 101.715 9.9984 94.6469 23.6751C90.9469 22.6238 87.0495 22.0538 83.0187 22.0664C59.5467 22.126 40.5869 41.4051 40.6695 65.1237C40.6869 70.4778 41.6831 75.5953 43.4699 80.3201C28.1489 86.8392 17.4178 102.176 17.4821 120.028C17.5402 137.004 27.3433 151.652 41.5174 158.586C41.1826 160.782 41.0084 163.032 41.0169 165.324C41.0995 189.043 60.1916 208.222 83.6637 208.163C88.631 208.15 93.3951 207.269 97.824 205.671C105.521 216.944 118.398 224.318 132.968 224.283C147.858 224.245 160.924 216.465 168.476 204.728C173.459 206.782 178.91 207.914 184.621 207.9C208.093 207.84 227.052 188.561 226.97 164.843C226.96 162.297 226.721 159.807 226.293 157.383C239.655 150.12 248.717 135.837 248.661 119.425L248.653 119.425Z" fill="#FCDE58"/>
<path d="M102.686 129.133C112.317 124.938 116.728 113.703 112.538 104.037C108.349 94.3718 97.1443 89.9367 87.513 94.1312C77.8817 98.3258 73.4705 109.561 77.6604 119.227C81.8502 128.892 93.0544 133.327 102.686 129.133Z" fill="#F7D02F"/>
<path d="M185.847 128.916C195.479 124.722 199.89 113.486 195.7 103.82C191.51 94.155 180.306 89.7199 170.675 93.9145C161.043 98.109 156.632 109.345 160.822 119.01C165.012 128.675 176.216 133.111 185.847 128.916Z" fill="#F7D02F"/>
<path d="M119.936 109.542C132.463 104.087 138.201 89.4724 132.751 76.9006C127.301 64.3287 112.728 58.5601 100.2 64.0159C87.673 69.4717 81.9354 84.086 87.3851 96.6578C92.8348 109.23 107.408 114.998 119.936 109.542Z" fill="white"/>
<path d="M172.989 109.405C185.516 103.949 191.254 89.3351 185.804 76.7633C180.354 64.1915 165.781 58.4228 153.253 63.8786C140.726 69.3344 134.988 83.9487 140.438 96.5205C145.888 109.092 160.461 114.861 172.989 109.405Z" fill="white"/>
<path d="M120.157 102.413C128.765 98.6637 132.707 88.6218 128.963 79.9832C125.218 71.3447 115.204 67.3808 106.596 71.1297C97.9879 74.8785 94.0453 84.9205 97.79 93.5591C101.535 102.198 111.549 106.161 120.157 102.413Z" fill="#351C03"/>
<path d="M167.179 102.309C175.787 98.5598 179.729 88.5178 175.985 79.8793C172.24 71.2407 162.226 67.2768 153.618 71.0257C145.01 74.7746 141.067 84.8166 144.812 93.4551C148.557 102.094 158.571 106.058 167.179 102.309Z" fill="#351C03"/>
<path d="M152.361 115.669L122.126 115.748C122.126 115.748 118.478 140.376 137.77 140.875C157.061 141.374 152.362 115.673 152.362 115.673L152.361 115.669Z" fill="#351C03"/>
<path d="M142.613 122.397L131.664 122.425C131.255 122.426 130.923 122.097 130.922 121.686L130.902 115.723L143.328 115.691L143.349 121.654C143.35 122.064 143.022 122.397 142.613 122.397Z" fill="white"/>
</g>
<defs>
<clipPath id="clip0_250_97">
<rect width="257" height="233" fill="white"/>
</clipPath>
</defs>
</svg>
